M48
T01C0.0150
T02C0.0300
T03C0.0350
T04C0.0750
T05C0.0200
T06C0.0500
T07C0.1250
T08C0.0250
T09C0.0400
T10C0.1181
T11C0.0700
%
T01
X-016600Y-030750
X-016450Y-029950
X-013950Y-025250
X-016150Y-029150
X-016600Y-031300
X-015950Y-028250
X-012600Y-013400
X-014600Y-024800
X-013600Y-023900
X-013600Y-026950
X-018150Y-031750
X-018150Y-034800
X-018650Y-032750
X-018650Y-035150
X-014500Y-033600
X-022100Y-032850
X-022500Y-035750
X-015900Y-031850
X-016850Y-037450
X-007950Y-028000
X-016600Y-036650
X-015900Y-032700
X-015350Y-011550
X-014750Y-034250
X-015600Y-036150
X-015150Y-036500
X-015000Y-034750
X-017000Y-015700
X-015900Y-017850
X-015950Y-014450
X-056350Y-029450
X-043250Y-014600
X-043450Y-027750
X-055950Y-028550
X-034100Y-014250
X-057150Y-031500
X-034950Y-024250
X-056750Y-030500
X-034350Y-019600
X-034300Y-026500
X-034300Y-013600
X-052070Y-002750
X-051000Y-002750
X-034450Y-032500
X-044050Y-032500
X-044050Y-026500
X-044050Y-019600
X-043600Y-013600
X-035100Y-010150
X-025400Y-021250
X-057550Y-032500
X-025750Y-013300
X-033900Y-036300
X-052350Y-017500
X-052350Y-030400
X-037650Y-008050
X-053350Y-018350
X-052900Y-028400
X-022650Y-037450
X-059400Y-018500
X-029500Y-004750
X-026100Y-004750
X-049094Y-033950
X-047944Y-029000
X-051694Y-025150
X-051694Y-033450
X-048544Y-026150
X-045294Y-029700
X-048244Y-029900
X-049344Y-024500
X-046044Y-024500
X-039994Y-033950
X-038844Y-029000
X-042594Y-025150
X-042594Y-033450
X-039444Y-026150
X-036194Y-029700
X-039144Y-029900
X-040244Y-024500
X-036944Y-024500
X-030850Y-033950
X-029700Y-029000
X-033450Y-025150
X-033450Y-033450
X-030300Y-026150
X-027050Y-029700
X-030000Y-029900
X-031100Y-024500
X-027800Y-024500
X-049044Y-021050
X-047894Y-016100
X-051644Y-012250
X-051644Y-020550
X-048494Y-013250
X-045244Y-016800
X-048194Y-017000
X-049294Y-011600
X-045994Y-011600
X-039944Y-021050
X-038794Y-016100
X-042544Y-012250
X-042544Y-020550
X-039394Y-013250
X-036144Y-016800
X-039094Y-017000
X-040194Y-011600
X-036894Y-011600
X-030844Y-021050
X-029694Y-016100
X-033444Y-012250
X-033444Y-020550
X-030294Y-013250
X-027044Y-016800
X-029994Y-017000
X-031094Y-011600
X-027794Y-011600
T02
X-023400Y-017750
X-023400Y-018750
X-023400Y-019750
X-023400Y-020750
X-023400Y-021750
X-023400Y-022750
X-023400Y-023750
X-023400Y-024750
X-023400Y-025750
X-023400Y-026750
X-023400Y-027750
X-023400Y-028750
X-023400Y-029750
X-023400Y-030750
X-023400Y-031750
X-023400Y-032750
X-023400Y-033750
X-023400Y-034750
X-023400Y-035750
X-023400Y-036750
X-017400Y-036750
X-017400Y-035750
X-017400Y-034750
X-017400Y-033750
X-017400Y-032750
X-017400Y-031750
X-017400Y-030750
X-017400Y-029750
X-017400Y-028750
X-017400Y-027750
X-017400Y-026750
X-017400Y-025750
X-017400Y-024750
X-017400Y-023750
X-017400Y-022750
X-017400Y-021750
X-017400Y-020750
X-017400Y-019750
X-017400Y-018750
X-017400Y-017750
X-012850Y-036650
X-011850Y-036650
X-010850Y-036650
X-009850Y-036650
X-008850Y-036650
X-007850Y-036650
X-006850Y-036650
X-005850Y-036650
X-005850Y-033650
X-006850Y-033650
X-007850Y-033650
X-008850Y-033650
X-009850Y-033650
X-010850Y-033650
X-011850Y-033650
X-012850Y-033650
X-010750Y-037800
X-010000Y-037800
X-008850Y-037800
X-008100Y-037800
X-006050Y-037800
X-006800Y-037800
X-012450Y-037800
X-013200Y-037800
X-006550Y-002900
X-006550Y-003900
X-006550Y-004900
X-006550Y-005900
X-005650Y-005400
X-005650Y-004400
X-005650Y-003400
X-005650Y-002400
X-001250Y-001550
X-001900Y-002450
X-001900Y-006500
X-001250Y-005600
X-017400Y-013750
X-018400Y-013750
X-019400Y-013750
X-020400Y-013750
X-021400Y-013750
X-022400Y-013750
X-023400Y-013750
X-023400Y-016750
X-022400Y-016750
X-021400Y-016750
X-020400Y-016750
X-019400Y-016750
X-018400Y-016750
X-017400Y-016750
X-011650Y-001500
X-011650Y-002500
X-011650Y-003500
X-011650Y-004500
X-011650Y-005500
X-011650Y-006500
X-011650Y-007500
X-011650Y-008500
X-011650Y-009500
X-011650Y-010500
X-011650Y-011500
X-011650Y-012500
X-011650Y-013500
X-014650Y-001500
X-014650Y-002500
X-014650Y-003500
X-014650Y-004500
X-014650Y-005500
X-014650Y-006500
X-014650Y-007500
X-014650Y-008500
X-014650Y-009500
X-014650Y-010500
X-014650Y-011500
X-014650Y-012500
X-014650Y-014492
X-011650Y-014500
X-008850Y-020800
X-008850Y-019050
X-008850Y-017300
X-008850Y-013800
X-008150Y-012200
X-008200Y-022800
X-008850Y-015550
X-003500Y-011200
X-003300Y-023600
X-038200Y-007450
X-037200Y-007450
X-036200Y-007450
X-035200Y-007450
X-034200Y-007450
X-033200Y-007450
X-032200Y-007450
X-031200Y-007450
X-030200Y-007450
X-029200Y-007450
X-028200Y-007450
X-027200Y-007450
X-026200Y-007450
X-025200Y-007450
X-024200Y-007450
X-023200Y-007450
X-022200Y-007450
X-021200Y-007450
X-020200Y-007450
X-019200Y-007450
X-019200Y-001450
X-020200Y-001450
X-021200Y-001450
X-022200Y-001450
X-023200Y-001450
X-024200Y-001450
X-025200Y-001450
X-026200Y-001450
X-027200Y-001450
X-028200Y-001450
X-029200Y-001450
X-030200Y-001450
X-031200Y-001450
X-032200Y-001450
X-033200Y-001450
X-034200Y-001450
X-035200Y-001450
X-036200Y-001450
X-037200Y-001450
X-038200Y-001450
X-008200Y-002000
X-008200Y-006000
X-010550Y-002000
X-010550Y-006000
X-002600Y-007700
X-006600Y-007700
X-006600Y-008500
X-002600Y-008500
X-009800Y-001000
X-008800Y-001000
X-001780Y-008119
X-000780Y-008119
X-009350Y-002000
X-009350Y-006000
X-014450Y-019050
X-010450Y-019050
X-014450Y-015850
X-010450Y-015850
X-014450Y-017000
X-010450Y-017000
X-015650Y-013000
X-015650Y-017000
X-014450Y-018000
X-010450Y-018000
X-014450Y-020100
X-010450Y-020100
X-003200Y-010300
X-007200Y-010300
X-003200Y-009450
X-007200Y-009450
X-010300Y-013400
X-010300Y-012612
X-010500Y-007400
X-010500Y-011400
X-016100Y-006700
X-016100Y-004700
X-015750Y-003000
X-016750Y-003000
X-016650Y-008500
X-015650Y-008500
X-009350Y-011400
X-009350Y-007400
X-019250Y-011450
X-019250Y-010450
X-019250Y-009450
X-019250Y-008450
X-022250Y-008450
X-022250Y-009450
X-022250Y-010450
X-022250Y-011450
X-023250Y-008450
X-023250Y-012450
X-024100Y-008450
X-024100Y-012450
X-014350Y-028450
X-006300Y-028450
X-024750Y-028750
X-024750Y-030750
X-017950Y-012850
X-021950Y-012850
X-027750Y-008900
X-025750Y-008900
X-034400Y-008450
X-038400Y-008450
X-024400Y-026700
X-024400Y-022700
X-056550Y-006250
X-055550Y-006250
X-054550Y-006250
X-053550Y-006250
X-052550Y-006250
X-051550Y-006250
X-050550Y-006250
X-050550Y-003250
X-051550Y-003250
X-052550Y-003250
X-053550Y-003250
X-054550Y-003250
X-055550Y-003250
X-056550Y-003250
X-052047Y-007450
X-056047Y-007450
X-055450Y-008400
X-051450Y-008400
X-050397Y-007403
X-046397Y-007403
X-046397Y-008403
X-050397Y-008403
X-051600Y-002150
X-047600Y-002150
X-047600Y-001400
X-051600Y-001400
X-052550Y-002100
X-056550Y-002100
X-056550Y-001400
X-052550Y-001400
X-046200Y-006200
X-045200Y-006200
X-044200Y-006200
X-043200Y-006200
X-042200Y-006200
X-041200Y-006200
X-040200Y-006200
X-040200Y-003200
X-041200Y-003200
X-042200Y-003200
X-043200Y-003200
X-044200Y-003200
X-045200Y-003200
X-046200Y-003200
X-049550Y-002750
X-049550Y-006750
X-045350Y-007050
X-041350Y-007050
X-048750Y-002750
X-048750Y-006750
X-041337Y-007983
X-045337Y-007983
X-045375Y-002375
X-041375Y-002375
X-041400Y-001450
X-045400Y-001450
X-048000Y-006750
X-048000Y-002750
X-047200Y-006750
X-047200Y-002750
X-055800Y-022150
X-055800Y-021150
X-054100Y-022150
X-054100Y-020150
X-055850Y-018000
X-055850Y-017000
X-054150Y-017000
X-054150Y-019000
X-051244Y-030900
X-050244Y-030900
X-049244Y-030900
X-048244Y-030900
X-047244Y-030900
X-046244Y-030900
X-045244Y-030900
X-045244Y-027900
X-046244Y-027900
X-047244Y-027900
X-048244Y-027900
X-049244Y-027900
X-050244Y-027900
X-051244Y-027900
X-051594Y-023450
X-051594Y-027050
X-050694Y-027050
X-050694Y-023450
X-049794Y-023450
X-049794Y-027050
X-048894Y-027050
X-048894Y-023450
X-047994Y-027050
X-047994Y-023450
X-047094Y-027050
X-047094Y-023450
X-046144Y-023450
X-046144Y-027050
X-045044Y-023750
X-045044Y-024750
X-045044Y-027000
X-045044Y-026000
X-051594Y-035400
X-051594Y-031800
X-050694Y-031800
X-050694Y-035400
X-049794Y-035400
X-049794Y-031800
X-048894Y-035400
X-048894Y-031800
X-047994Y-035400
X-047994Y-031800
X-047094Y-031800
X-047094Y-035400
X-046144Y-035400
X-046144Y-031800
X-045094Y-035150
X-045094Y-034150
X-045094Y-032000
X-045094Y-033000
X-042144Y-030900
X-041144Y-030900
X-040144Y-030900
X-039144Y-030900
X-038144Y-030900
X-037144Y-030900
X-036144Y-030900
X-036144Y-027900
X-037144Y-027900
X-038144Y-027900
X-039144Y-027900
X-040144Y-027900
X-041144Y-027900
X-042144Y-027900
X-042494Y-023450
X-042494Y-027050
X-041594Y-027050
X-041594Y-023450
X-040694Y-023450
X-040694Y-027050
X-039794Y-027050
X-039794Y-023450
X-038894Y-027050
X-038894Y-023450
X-037994Y-027050
X-037994Y-023450
X-037044Y-023450
X-037044Y-027050
X-035944Y-023750
X-035944Y-024750
X-035944Y-027000
X-035944Y-026000
X-042494Y-035400
X-042494Y-031800
X-041594Y-031800
X-041594Y-035400
X-040694Y-035400
X-040694Y-031800
X-039794Y-035400
X-039794Y-031800
X-038894Y-035400
X-038894Y-031800
X-037994Y-031800
X-037994Y-035400
X-037044Y-035400
X-037044Y-031800
X-035994Y-035150
X-035994Y-034150
X-035994Y-032000
X-035994Y-033000
X-033000Y-030900
X-032000Y-030900
X-031000Y-030900
X-030000Y-030900
X-029000Y-030900
X-028000Y-030900
X-027000Y-030900
X-027000Y-027900
X-028000Y-027900
X-029000Y-027900
X-030000Y-027900
X-031000Y-027900
X-032000Y-027900
X-033000Y-027900
X-033350Y-023450
X-033350Y-027050
X-032450Y-027050
X-032450Y-023450
X-031550Y-023450
X-031550Y-027050
X-030650Y-027050
X-030650Y-023450
X-029750Y-027050
X-029750Y-023450
X-028850Y-027050
X-028850Y-023450
X-027900Y-023450
X-027900Y-027050
X-026800Y-023750
X-026800Y-024750
X-026800Y-027000
X-026800Y-026000
X-033350Y-035400
X-033350Y-031800
X-032450Y-031800
X-032450Y-035400
X-031550Y-035400
X-031550Y-031800
X-030650Y-035400
X-030650Y-031800
X-029750Y-035400
X-029750Y-031800
X-028850Y-031800
X-028850Y-035400
X-027900Y-035400
X-027900Y-031800
X-026850Y-035150
X-026850Y-034150
X-026850Y-032000
X-026850Y-033000
X-051194Y-018000
X-050194Y-018000
X-049194Y-018000
X-048194Y-018000
X-047194Y-018000
X-046194Y-018000
X-045194Y-018000
X-045194Y-015000
X-046194Y-015000
X-047194Y-015000
X-048194Y-015000
X-049194Y-015000
X-050194Y-015000
X-051194Y-015000
X-051544Y-010550
X-051544Y-014150
X-050644Y-014150
X-050644Y-010550
X-049744Y-010550
X-049744Y-014150
X-048844Y-014150
X-048844Y-010550
X-047944Y-014150
X-047944Y-010550
X-047044Y-014150
X-047044Y-010550
X-046094Y-010550
X-046094Y-014150
X-044994Y-010850
X-044994Y-011850
X-044994Y-014100
X-044994Y-013100
X-051544Y-022500
X-051544Y-018900
X-050644Y-018900
X-050644Y-022500
X-049744Y-022500
X-049744Y-018900
X-048844Y-022500
X-048844Y-018900
X-047944Y-022500
X-047944Y-018900
X-047044Y-018900
X-047044Y-022500
X-046094Y-022500
X-046094Y-018900
X-045044Y-022250
X-045044Y-021250
X-045044Y-019100
X-045044Y-020100
X-042094Y-018000
X-041094Y-018000
X-040094Y-018000
X-039094Y-018000
X-038094Y-018000
X-037094Y-018000
X-036094Y-018000
X-036094Y-015000
X-037094Y-015000
X-038094Y-015000
X-039094Y-015000
X-040094Y-015000
X-041094Y-015000
X-042094Y-015000
X-042444Y-010550
X-042444Y-014150
X-041544Y-014150
X-041544Y-010550
X-040644Y-010550
X-040644Y-014150
X-039744Y-014150
X-039744Y-010550
X-038844Y-014150
X-038844Y-010550
X-037944Y-014150
X-037944Y-010550
X-036994Y-010550
X-036994Y-014150
X-035894Y-010850
X-035894Y-011850
X-035894Y-014100
X-035894Y-013100
X-042444Y-022500
X-042444Y-018900
X-041544Y-018900
X-041544Y-022500
X-040644Y-022500
X-040644Y-018900
X-039744Y-022500
X-039744Y-018900
X-038844Y-022500
X-038844Y-018900
X-037944Y-018900
X-037944Y-022500
X-036994Y-022500
X-036994Y-018900
X-035944Y-022250
X-035944Y-021250
X-035944Y-019100
X-035944Y-020100
X-032994Y-018000
X-031994Y-018000
X-030994Y-018000
X-029994Y-018000
X-028994Y-018000
X-027994Y-018000
X-026994Y-018000
X-026994Y-015000
X-027994Y-015000
X-028994Y-015000
X-029994Y-015000
X-030994Y-015000
X-031994Y-015000
X-032994Y-015000
X-033344Y-010550
X-033344Y-014150
X-032444Y-014150
X-032444Y-010550
X-031544Y-010550
X-031544Y-014150
X-030644Y-014150
X-030644Y-010550
X-029744Y-014150
X-029744Y-010550
X-028844Y-014150
X-028844Y-010550
X-027894Y-010550
X-027894Y-014150
X-026794Y-010850
X-026794Y-011850
X-026794Y-014100
X-026794Y-013100
X-033344Y-022500
X-033344Y-018900
X-032444Y-018900
X-032444Y-022500
X-031544Y-022500
X-031544Y-018900
X-030644Y-022500
X-030644Y-018900
X-029744Y-022500
X-029744Y-018900
X-028844Y-018900
X-028844Y-022500
X-027894Y-022500
X-027894Y-018900
X-026844Y-022250
X-026844Y-021250
X-026844Y-019100
X-026844Y-020100
T03
X-001250Y-033000
X-001250Y-032250
X-001250Y-031500
X-001250Y-030750
X-001250Y-030000
X-001250Y-029250
X-001250Y-028500
X-001250Y-027750
X-002000Y-033000
X-002000Y-032250
X-002000Y-031500
X-002000Y-030750
X-002000Y-030000
X-002000Y-029250
X-002000Y-028500
X-002000Y-027750
X-002750Y-033000
X-002750Y-032250
X-002750Y-031500
X-002750Y-030750
X-002750Y-030000
X-002750Y-029250
X-002750Y-028500
X-002750Y-027750
T04
X-004050Y-027750
X-002750Y-025550
X-002750Y-037640
X-004050Y-035240
T05
X-002500Y-035250
X-001500Y-035230
X-001500Y-034250
X-002490Y-034230
X-001000Y-034750
X-003010Y-034720
T06
X-004400Y-007150
X-004400Y-000900
T07
X-003150Y-006150
X-003150Y-001900
T08
X-014650Y-013500
X-018150Y-011850
X-018150Y-010850
T09
X-013700Y-023000
X-012700Y-023000
X-011700Y-023000
X-010700Y-023000
X-009700Y-023000
X-009700Y-022000
X-010700Y-022000
X-011700Y-022000
X-012700Y-022000
X-013700Y-022000
X-060500Y-004000
X-058500Y-004000
X-060500Y-005000
X-058500Y-005000
X-060500Y-006000
X-058500Y-006000
X-060500Y-007000
X-058500Y-007000
X-060500Y-008000
X-058500Y-008000
X-060500Y-009000
X-058500Y-009000
X-060500Y-010000
X-058500Y-010000
X-060500Y-011000
X-058500Y-011000
X-060500Y-012000
X-058500Y-012000
X-060500Y-013000
X-058500Y-013000
X-060500Y-014000
X-058500Y-014000
X-060500Y-015000
X-058500Y-015000
X-060500Y-016000
X-058500Y-016000
X-060500Y-017000
X-058500Y-017000
X-060500Y-018000
X-058500Y-018000
X-060500Y-019000
X-058500Y-019000
X-060500Y-020000
X-058500Y-020000
X-060500Y-021000
X-058500Y-021000
X-060500Y-022000
X-058500Y-022000
X-060500Y-023000
X-058500Y-023000
X-060500Y-024000
X-058500Y-024000
X-060500Y-025000
X-058500Y-025000
X-060500Y-026000
X-058500Y-026000
X-060500Y-027000
X-058500Y-027000
X-060500Y-028000
X-058500Y-028000
X-060500Y-029000
X-058500Y-029000
X-060500Y-030000
X-058500Y-030000
X-060500Y-031000
X-058500Y-031000
X-060500Y-032000
X-058500Y-032000
X-060500Y-033000
X-058500Y-033000
X-060500Y-034000
X-058500Y-034000
X-060500Y-035000
X-058500Y-035000
X-054550Y-010900
X-054550Y-011900
X-054550Y-012900
X-054550Y-013900
X-054550Y-014900
X-053550Y-014900
X-053550Y-013900
X-053550Y-012900
X-053550Y-011900
X-053550Y-010900
T10
X-061500Y-037000
X-061500Y-002000
T11
X-000950Y-010000
X-001200Y-037650
M30
